<?xml version="1.0" ?><svg viewBox="0 0 512 512" xmlns="http://www.w3.org/2000/svg"><title/><g data-name="1" id="_1"><path d="M403,445.46H107.26a53.18,53.18,0,0,1-53.13-53.12V276.58a53.18,53.18,0,0,1,53.13-53.12H403a53.18,53.18,0,0,1,53.12,53.12V392.34A53.18,53.18,0,0,1,403,445.46Zm-295.75-192a23.15,23.15,0,0,0-23.13,23.12V392.34a23.15,23.15,0,0,0,23.13,23.12H403a23.14,23.14,0,0,0,23.12-23.12V276.58A23.14,23.14,0,0,0,403,253.46Z"/><path d="M342.69,253.46H167.58a15,15,0,0,1-12.5-23.28L225,124.65a15,15,0,1,1,25,16.57l-54.5,82.24H314.75l-54.5-82.24a15,15,0,1,1,25-16.57l69.94,105.53a15,15,0,0,1-12.5,23.28Z"/><path d="M255.13,153.24A46.89,46.89,0,1,1,302,106.35,46.94,46.94,0,0,1,255.13,153.24Zm0-63.78A16.89,16.89,0,1,0,272,106.35,16.91,16.91,0,0,0,255.13,89.46Z"/><path d="M135.81,305.75c-7.58,0-11.89,4.19-11.89,13v31.61c0,8.83,4.31,13,12.12,13,10.31,0,11.22-7.36,11.56-12.12.22-3.51,3.39-4.64,7.24-4.64,5.1,0,7.48,1.47,7.48,7.25,0,13.7-11.21,22.42-27.07,22.42-14.27,0-26-7-26-25.93V318.77c0-18.91,11.89-25.93,26.16-25.93,15.75,0,27,8.38,27,21.52,0,5.89-2.38,7.25-7.36,7.25-4.19,0-7.25-1.25-7.36-4.65S146.58,305.75,135.81,305.75Z"/><path d="M135.25,378.81c-18.15,0-28.55-10.36-28.55-28.43V318.77c0-18.07,10.45-28.43,28.66-28.43,17.62,0,29.46,9.65,29.46,24,0,8.59-5,9.75-9.86,9.75-8.69,0-9.79-4.94-9.86-7.06-.3-4.54-1.63-8.8-9.29-8.8-6.4,0-9.39,3.34-9.39,10.52v31.61c0,7.27,3,10.52,9.62,10.52,7.72,0,8.69-4.63,9.06-9.8.14-2.08,1.36-7,9.74-7,4.65,0,10,1.11,10,9.75C164.82,368.8,152.94,378.81,135.25,378.81Zm.11-83.47c-19.56,0-23.66,12.74-23.66,23.43v31.61c0,10.69,4.08,23.43,23.55,23.43,14.7,0,24.57-8,24.57-19.92,0-4-.79-4.75-5-4.75-4.6,0-4.71,1.67-4.75,2.3-.28,4-1,14.46-14.05,14.46-9.43,0-14.62-5.51-14.62-15.52V318.77c0-10,5.11-15.52,14.39-15.52,8.9,0,13.7,4.56,14.28,13.55.08,2.31,3.68,2.31,4.87,2.31,3.46,0,4.86-.19,4.86-4.75C159.82,303,150,295.34,135.36,295.34Z"/><path d="M178.74,375.63c-3.29,0-6.46-1.58-6.46-4.64V297.37c0-3.17,3.63-4.53,7.36-4.53s7.37,1.36,7.37,4.53v65.35h27.63c3,0,4.42,3.17,4.42,6.46s-1.47,6.45-4.42,6.45Z"/><path d="M214.64,378.13h-35.9c-5.19,0-9-3-9-7.14V297.37c0-4.21,4-7,9.86-7s9.87,2.82,9.87,7v62.85h25.13c4.08,0,6.92,3.68,6.92,9S218.65,378.13,214.64,378.13Zm-35-82.79c-2.35,0-4.86.71-4.86,2V371c0,1.56,2.43,2.14,4,2.14h35.9c1.19,0,1.92-2.05,1.92-3.95,0-1.64-.59-4-1.92-4H184.51V297.37C184.51,296.1,182,295.34,179.64,295.34Z"/><path d="M224.84,350.38V318.77c0-18.91,11.55-25.93,26.5-25.93s26.62,7,26.62,25.93v31.61c0,18.91-11.67,25.93-26.62,25.93S224.84,369.29,224.84,350.38Zm38.39-31.61c0-8.94-4.53-13-11.89-13s-11.78,4.08-11.78,13v31.61c0,8.94,4.31,13,11.78,13s11.89-4.08,11.89-13Z"/><path d="M251.34,378.81c-18.7,0-29-10.1-29-28.43V318.77c0-18.33,10.3-28.43,29-28.43,18.5,0,29.12,10.36,29.12,28.43v31.61C280.46,368.45,269.84,378.81,251.34,378.81Zm0-83.47c-15.93,0-24,7.88-24,23.43v31.61c0,15.55,8.07,23.43,24,23.43,11,0,24.12-4.06,24.12-23.43V318.77C275.46,308.08,271.27,295.34,251.34,295.34Zm0,70.56c-9.21,0-14.28-5.51-14.28-15.52V318.77c0-10,5.07-15.52,14.28-15.52s14.39,5.66,14.39,15.52v31.61C265.73,360.24,260.49,365.9,251.34,365.9Zm0-57.65c-6.42,0-9.28,3.24-9.28,10.52v31.61c0,7.27,2.86,10.52,9.28,10.52s9.39-3.34,9.39-10.52V318.77C260.73,311.59,257.75,308.25,251.34,308.25Z"/><path d="M324.85,353.55c0-17-36.36-11.78-36.36-38.63,0-16.87,14.5-22.65,27.52-22.65,6.68,0,21.52,1.59,21.52,9.06,0,2.61-1.81,7.82-5.89,7.82-3.51,0-6.11-4.31-15.63-4.31-8.15,0-12.8,3.29-12.8,8.72,0,14.05,36.36,9.18,36.36,38.51,0,16.2-11.33,24.58-27,24.58-14.83,0-26.16-7.47-26.16-14,0-3.17,2.94-7.93,6.46-7.93,4.64,0,7.7,8.72,19.25,8.72C319,363.4,324.85,360.34,324.85,353.55Z"/><path d="M312.61,379.15c-15.27,0-28.66-7.73-28.66-16.54,0-4.2,3.76-10.43,9-10.43,2.71,0,4.73,1.7,6.88,3.51,2.91,2.44,6.21,5.21,12.37,5.21,2.39,0,10.19-.53,10.19-7.35,0-5.62-5.17-8.2-13.61-11.95C298.6,337.1,286,331.5,286,314.92c0-18.56,16.17-25.15,30-25.15,2.46,0,24,.32,24,11.56,0,3.6-2.46,10.32-8.39,10.32a11.07,11.07,0,0,1-5.15-1.66A20.36,20.36,0,0,0,316,307.34c-3.84,0-10.3.81-10.3,6.22,0,3.9,4.46,6,11.75,9.08,10.38,4.4,24.61,10.44,24.61,29.43C342.07,368.78,330.78,379.15,312.61,379.15Zm-19.7-22c-1.8,0-4,3.33-4,5.43,0,4.65,9.94,11.54,23.66,11.54,15.32,0,24.46-8.25,24.46-22.08,0-15.68-11.46-20.54-21.57-24.83-7.6-3.23-14.79-6.28-14.79-13.68,0-8.27,7.91-11.22,15.3-11.22a25,25,0,0,1,12.76,3.2,7.62,7.62,0,0,0,2.87,1.11c2.2,0,3.39-3.78,3.39-5.32,0-2.72-5.9-6.56-19-6.56-23.22,0-25,15.43-25,20.15,0,13.33,10.06,17.79,19.78,22.11,8.15,3.62,16.58,7.36,16.58,16.52,0,7.5-6,12.35-15.19,12.35-8,0-12.38-3.69-15.58-6.39C295.08,358.26,293.8,357.18,292.91,357.18Z"/><path d="M364.37,328.4h17.22c2.94,0,4.64,2.83,4.64,5.89,0,2.61-1.47,5.67-4.64,5.67H364.37v22.76h32.06c2.94,0,4.64,3.06,4.64,6.57,0,3.06-1.47,6.34-4.64,6.34H356.1c-3.28,0-6.45-1.58-6.45-4.64V297.48c0-3.06,3.17-4.64,6.45-4.64h40.33c3.17,0,4.64,3.28,4.64,6.34,0,3.51-1.7,6.57-4.64,6.57H364.37Z"/><path d="M396.43,378.13H356.1c-5.19,0-9-3-9-7.14V297.48c0-4.14,3.76-7.14,9-7.14h40.33c4.69,0,7.14,4.44,7.14,8.84,0,5.25-3,9.07-7.14,9.07H366.87V325.9h14.72c4.07,0,7.14,3.61,7.14,8.39,0,4-2.5,8.17-7.14,8.17H366.87v17.76h29.56c4.14,0,7.14,3.82,7.14,9.07C403.57,373.69,401.12,378.13,396.43,378.13ZM356.1,295.34c-1.53,0-4,.58-4,2.14V371c0,1.56,2.42,2.14,4,2.14h40.33c1.76,0,2.14-2.77,2.14-3.84,0-2-.75-4.07-2.14-4.07H361.87V337.46h19.72c1.76,0,2.14-2.29,2.14-3.17,0-1.36-.57-3.39-2.14-3.39H361.87V303.25h34.56c1.39,0,2.14-2.1,2.14-4.07,0-1.07-.38-3.84-2.14-3.84Z"/></g></svg>